<?xml version="1.0" encoding="UTF-8"?>
<svg xmlns="http://www.w3.org/2000/svg" viewBox="0 0 1280 1024">
  <defs>
    <style>
      .cls-1 {
        fill: #1e1e1e;
      }

      .cls-1, .cls-2 {
        stroke-width: 0px;
      }

      .cls-2 {
        fill: #52887a;
      }
    </style>
  </defs>
  <g id="Layer_3" data-name="Layer 3">
    <rect class="cls-1" x="162" y="35" width="955" height="955" rx="125.15" ry="125.15"/>
  </g>
  <g id="Layer_2" data-name="Layer 2">
    <path class="cls-2" d="M571.5,829.5h164.18c-.04.08,12.32,1.5,6.82,23-4.5,19.5-17.5,65.5-84.7,70.11-67.3,5.89-96.3-62.11-94.3-82.11,0-8,8-11,8-11Z"/>
    <path class="cls-2" d="M808.5,675.5c-40,26-40.33,101-40.33,101h262.33v-434l-398-241-383.97,239.09v435.91h287.97s6.02-70.02-33-98c-29.37-21.06-135.45-156.49-40-298,18.78-27.84,44-59,84-78,26.11-12.4,51-26,107-25,0,0,105-7,185,96s22,226,22,226c0,0-8,27-29,49s-24,27-24,27Z"/>
    <path class="cls-2" d="M472,514c-.47-14.12,1.68-27.22,4.72-40.74,6.73-30.05,20-58.83,40.26-82.19,15.13-17.44,33.55-31.34,54.05-41.88,6.87-3.53.81-13.89-6.06-10.36-35.63,18.32-64.81,47.12-82.72,83.03-11.92,23.9-19.13,50.04-21.56,76.62-.47,5.14-.86,10.37-.69,15.54.26,7.7,12.26,7.74,12,0h0Z"/>
    <path class="cls-2" d="M610.53,331.68c1.01-.6,2.09-1.09,3.17-1.55,1.36-.59,6.47-2.19,9.28-2.85,12.43-2.91,25.47-2.38,37.93,0,7.55,1.45,10.78-10.12,3.19-11.57-18.76-3.6-42.4-4.58-59.62,5.6-6.64,3.93-.61,14.31,6.06,10.36h0Z"/>
  </g>
</svg>